<?xml version="1.0" standalone="no"?>
<!DOCTYPE svg PUBLIC "-//W3C//DTD SVG 20010904//EN"
 "http://www.w3.org/TR/2001/REC-SVG-20010904/DTD/svg10.dtd">
<svg version="1.0" xmlns="http://www.w3.org/2000/svg"
 width="128.000000pt" height="128.000000pt" viewBox="0 0 128.000000 128.000000"
 preserveAspectRatio="xMidYMid meet">
<metadata>
Created by potrace 1.11, written by Peter Selinger 2001-2013
</metadata>
<g transform="translate(0.000000,128.000000) scale(0.100000,-0.100000)"
fill="#000000" stroke="none">
<path d="M602 1198 c-17 -17 -15 -53 3 -68 8 -7 15 -29 15 -50 l0 -38 -54 -6
c-29 -4 -81 -20 -115 -36 -169 -80 -261 -226 -261 -414 0 -132 43 -233 141
-326 l48 -46 -30 -31 c-23 -23 -29 -36 -24 -52 10 -32 44 -26 85 14 l36 36 40
-17 c63 -27 206 -30 281 -6 l62 19 33 -34 c23 -24 40 -33 58 -31 36 4 39 46 6
78 l-26 23 59 61 c65 69 94 119 116 203 42 160 -5 323 -126 438 -65 63 -141
101 -230 118 -58 11 -59 12 -59 45 0 18 7 44 16 58 24 35 6 74 -34 74 -15 0
-33 -5 -40 -12z m186 -294 c105 -52 171 -141 194 -262 9 -50 8 -72 -6 -129
-53 -217 -282 -330 -482 -239 -162 74 -245 267 -184 429 40 107 124 188 229
222 70 22 179 13 249 -21z"/>
<path d="M606 825 c-9 -24 -7 -248 2 -263 6 -9 35 -12 108 -10 93 3 99 4 102
25 4 30 -28 45 -91 42 l-52 -3 -5 109 c-5 110 -5 110 -31 113 -17 2 -29 -3
-33 -13z"/>
<path d="M234 1166 c-59 -27 -116 -90 -132 -145 -25 -80 -5 -191 40 -229 14
-11 19 -6 38 33 49 102 181 214 295 249 l56 18 -23 25 c-13 14 -45 36 -73 49
-66 31 -134 31 -201 0z"/>
<path d="M862 1178 c-18 -6 -52 -28 -74 -48 l-41 -36 64 -23 c121 -44 217
-125 279 -235 18 -31 34 -56 36 -56 12 0 54 92 59 132 14 96 -42 206 -128 250
-48 24 -146 32 -195 16z"/>
</g>
</svg>
